<svg width="30" height="29" viewBox="0 0 30 29" fill="none" xmlns="http://www.w3.org/2000/svg">
<path fill-rule="evenodd" clip-rule="evenodd" d="M14.9999 5.15259L13.6556 3.77072C10.4999 0.526966 4.71368 1.64634 2.62493 5.72447C1.6443 7.64259 1.42305 10.412 3.21368 13.9463C4.93868 17.3495 8.52743 21.4257 14.9999 25.8657C21.4724 21.4257 25.0593 17.3495 26.7862 13.9463C28.5768 10.4101 28.3574 7.64259 27.3749 5.72447C25.2862 1.64634 19.4999 0.525091 16.3443 3.76884L14.9999 5.15259ZM14.9999 28.1251C-13.7495 9.12759 6.14805 -5.69991 14.6699 2.14322C14.7824 2.24634 14.8931 2.35322 14.9999 2.46384C15.1057 2.35332 15.2158 2.24699 15.3299 2.14509C23.8499 -5.70366 43.7493 9.12572 14.9999 28.1251Z" fill="#FF0000"/>
</svg>
